# xmcd CD database file
#
# Track frame offsets:
#	150
#	15658
#	38853
#	62622
#	84836
#	105721
#	126571
#	144930
#	162288
#	183489
#
# Disc length: 2665 seconds
#
# Revision: 0
# Processed by: cddbd v1.4PL0 Copyright (c) Steve Scherf et al.
# Submitted via: CDex 1.40Release
#
DISCID=7e0a670a
DTITLE=O.B.BUCHANA - I GOT CAUGHT
DYEAR=2002
DGENRE=Blues
TTITLE0=LET'S GET DRUNK
TTITLE1=ONE STEP CLOSER TO THE BLUES
TTITLE2=GOOD LOVE
TTITLE3=I CAN'T CHOOSE
TTITLE4=RING, RING, HELLO CLICK
TTITLE5=MAY BE MY TIME
TTITLE6=I GOT CAUGHT
TTITLE7=COLDEST IN THE GAME
TTITLE8=THAT'S THE WAY
TTITLE9=I CAN'T CHOOSE(RADIO CUT)
EXTD=YEAR: 2002 ID3G: 0
EXTT0=
EXTT1=
EXTT2=
EXTT3=
EXTT4=
EXTT5=
EXTT6=
EXTT7=
EXTT8=
EXTT9=
PLAYORDER=
